<svg width="256" height="256" viewBox="0 0 256 256" fill="none" xmlns="http://www.w3.org/2000/svg">
<path d="M256 0H0V256H256V0Z" fill="black"/>
<path d="M209 44.6175H42V202.382H209V44.6175Z" fill="url(#paint0_linear_203_9)"/>
<path d="M97.954 102.858L126.956 117.361L155.685 102.901L126.682 88.398L97.954 102.858Z" fill="black"/>
<path d="M28 23.6981V218.302H219V23.6981H28ZM135.607 172.512C135.56 173.909 135.122 175.266 134.343 176.428C133.565 177.59 132.477 178.511 131.202 179.087C129.836 179.756 128.334 180.103 126.813 180.102C125.291 180.101 123.79 179.752 122.424 179.082L75.8735 155.803C74.5946 155.224 73.5045 154.296 72.7274 153.127C71.9504 151.957 71.5178 150.593 71.4789 149.189L71.5863 116.391C71.8401 116.534 72.0938 116.677 72.3567 116.808L89.135 125.199L89.0706 144.823L118.073 159.327L118.138 139.702L118.907 140.087C121.421 141.331 124.188 141.977 126.993 141.973C129.797 141.97 132.563 141.317 135.074 140.067L135.715 139.744L135.607 172.512ZM181.856 149.233C181.809 150.624 181.374 151.975 180.602 153.134C179.83 154.292 178.75 155.213 177.483 155.792L143.802 172.745C143.803 172.676 143.81 172.608 143.81 172.539L143.868 155.104L164.293 144.823L164.357 125.328L181.323 116.788C181.542 116.678 181.751 116.557 181.963 116.439L181.856 149.233ZM177.635 109.461L131.387 132.74C130.017 133.416 128.51 133.768 126.983 133.77C125.455 133.772 123.948 133.423 122.576 132.75L76.0252 109.472C74.7257 108.93 73.6152 108.017 72.8333 106.846C72.0514 105.676 71.633 104.3 71.6306 102.892C71.6283 101.484 72.0421 100.107 72.8202 98.934C73.5982 97.7607 74.7056 96.8436 76.0034 96.2979L122.252 73.0191C123.621 72.3431 125.128 71.9905 126.656 71.9887C128.183 71.9868 129.691 72.3357 131.062 73.0084L177.613 96.287C178.913 96.8284 180.023 97.7418 180.805 98.9125C181.587 100.083 182.006 101.459 182.008 102.867C182.01 104.274 181.596 105.651 180.818 106.825C180.04 107.998 178.933 108.915 177.635 109.461L177.635 109.461Z" fill="black"/>
<defs>
<linearGradient id="paint0_linear_203_9" x1="65.6025" y1="63.6025" x2="183.689" y2="181.689" gradientUnits="userSpaceOnUse">
<stop offset="0.395833" stop-color="white"/>
<stop offset="0.802083" stop-color="#90A6B3"/>
</linearGradient>
</defs>
</svg>
